<mxfile host="app.diagrams.net" modified="2023-04-23T13:29:30.291Z" agent="Mozilla/5.0 (Windows NT 10.0; Win64; x64) AppleWebKit/537.36 (KHTML, like Gecko) Chrome/112.0.0.0 Safari/537.36" version="21.1.2" etag="JhXEDjT8wfF-6SSblhgV" type="github">
  <diagram name="Страница 1" id="jpxlWPoU6hlKzCwcsl4I">
    <mxGraphModel>
      <root>
        <mxCell id="0" />
        <mxCell id="1" parent="0" />
      </root>
    </mxGraphModel>
  </diagram>
</mxfile>
